<svg width="338" height="346" viewBox="0 0 338 346" fill="none" xmlns="http://www.w3.org/2000/svg">
<path d="M66.4384 93.5H18.8662C9.33797 93.5 2.39458 102.526 4.83795 111.735C5.89564 115.722 8.59965 119.07 12.2743 120.944L54.0838 142.258C56.3252 143.401 58.2432 145.089 59.6613 147.167L84.4717 183.527C85.805 185.481 86.6572 187.723 86.9589 190.069L90.6116 218.479C90.8679 220.473 90.7209 222.497 90.1794 224.433L70.5336 294.657C68.7362 301.081 71.3979 307.921 77.0651 311.44L108.495 330.96C112.581 333.497 117.636 333.922 122.088 332.1L130.479 328.668C134.61 326.978 139.279 327.215 143.217 329.316L169.524 343.346C172.732 345.057 176.451 345.545 179.992 344.719L192.908 341.705C199.697 340.121 204.5 334.068 204.5 327.097V326.241C204.5 320.839 207.405 315.854 212.105 313.191L229.662 303.242C232.784 301.473 236.436 300.881 239.956 301.575L292.465 311.917C297.473 312.904 302.639 311.276 306.176 307.597L326.834 286.112C331.743 281.007 329.197 272.499 322.291 270.93C318.523 270.073 315.706 266.93 315.266 263.09L307.278 193.3C306.888 189.887 303.345 187.791 300.165 189.092C295.433 191.027 291.053 185.671 293.888 181.418L322.059 139.162C323.012 137.731 323.713 136.147 324.13 134.479L334.529 92.8832C336.472 85.1123 331.966 77.1862 324.295 74.8802L259.344 55.3548C257.466 54.7904 255.717 53.8634 254.197 52.6263L195.132 4.58136C191.575 1.68768 186.889 0.580177 182.413 1.57494L178.746 2.38977C171.883 3.91489 167 10.0021 167 17.0326V25.9685C167 30.1339 165.268 34.1118 162.218 36.9495L137.21 60.221C133.357 63.8068 127.906 65.1105 122.847 63.6561L92.4656 54.9213C91.4933 54.6418 90.4867 54.5 89.4751 54.5C82.2465 54.5 77.0495 61.4506 79.094 68.3841L80.8259 74.2575C83.6595 83.8669 76.4568 93.5 66.4384 93.5Z" fill="#E6F6EB" stroke="#30A46C"/>
<circle cx="69" cy="114" r="5" fill="#30A46C"/>
<circle cx="187" cy="50" r="5" fill="#30A46C"/>
<circle cx="271" cy="108" r="5" fill="#30A46C"/>
<circle cx="164" cy="181" r="5" fill="#30A46C"/>
<circle cx="224" cy="212" r="5" fill="#30A46C"/>
<circle cx="229" cy="202" r="5" fill="#30A46C"/>
<circle cx="197" cy="192" r="5" fill="#30A46C"/>
<circle cx="197" cy="222" r="5" fill="#30A46C"/>
<circle cx="261" cy="242" r="5" fill="#30A46C"/>
<circle cx="192" cy="124" r="5" fill="#30A46C"/>
<circle cx="141" cy="98" r="5" fill="#30A46C"/>
<circle cx="101" cy="182" r="5" fill="#30A46C"/>
<circle cx="131" cy="256" r="5" fill="#30A46C"/>
<circle cx="159" cy="266" r="5" fill="#30A46C"/>
<circle cx="136" cy="276" r="5" fill="#30A46C"/>
<circle cx="87" cy="280" r="5" fill="#30A46C"/>
<circle cx="154" cy="310" r="5" fill="#30A46C"/>
<circle cx="261" cy="270" r="5" fill="#30A46C"/>
</svg>
