<svg width="30" height="30" viewBox="0 0 30 30" fill="none" xmlns="http://www.w3.org/2000/svg">
<g clip-path="url(#clip0_1616_152)">
<path d="M29.4496 18.4035C29.4324 18.3511 29.4088 18.3011 29.3792 18.2546C29.2054 17.9256 28.7832 17.8274 28.1199 17.9645C26.0533 18.3909 25.2531 18.1285 24.9629 17.9406C26.6404 15.3804 28.0192 12.2881 28.7643 9.4035C29.1036 8.09013 29.7621 4.99888 28.9171 3.489C28.8631 3.38566 28.7999 3.28735 28.7284 3.19525C27.1167 1.13575 24.7512 0.0310018 21.8877 0.000626754C20.0193 -0.0191232 18.4246 0.433252 17.9926 0.599877C17.7786 0.559941 17.5635 0.525928 17.3477 0.497877C16.8066 0.399889 16.2583 0.34646 15.7084 0.338127C14.2307 0.315127 12.9537 0.668377 11.8962 1.38888C10.8246 0.987502 5.91018 -0.667373 2.8688 1.48738C1.17018 2.69075 0.386053 4.84163 0.538053 7.88038C0.589178 8.90288 1.17168 12.0479 2.09093 15.0599C2.66568 16.943 3.2643 18.4373 3.88268 19.5374C4.57393 20.7801 5.29005 21.529 6.02555 21.7743C6.5848 21.9606 7.44143 21.9544 8.34818 20.8644C9.34968 19.66 10.3361 18.5821 10.7789 18.1058C11.3228 18.4001 11.9119 18.5589 12.5164 18.5773C12.5165 18.579 12.5167 18.5807 12.5169 18.5824C12.4117 18.7078 12.3087 18.8351 12.2079 18.9641C11.7843 19.5019 11.6962 19.6138 10.3327 19.8945C9.94493 19.9745 8.91468 20.1869 8.89968 20.9089C8.89655 21.0619 8.9408 21.1975 9.01455 21.3174C9.29818 21.8463 10.1666 22.0795 10.2833 22.1088C11.9514 22.5256 13.4138 22.2238 14.4976 21.2604C14.4763 24.0491 14.5944 26.7821 14.9293 27.6196C15.2058 28.3108 15.8816 30.0003 18.0158 30C18.3289 30 18.6737 29.9636 19.0528 29.8824C21.2802 29.4048 22.2474 28.4204 22.6216 26.25C22.8094 25.1616 23.1236 22.6559 23.2951 21.1235C23.3162 21.0356 23.3397 20.9726 23.3663 20.9533C23.3672 20.9526 23.4534 20.8944 23.9003 20.9916C23.9186 20.9956 23.9371 20.9984 23.9557 21.0001L24.2731 21.028L24.2917 21.0293C25.3502 21.0773 26.6809 20.851 27.4557 20.4908C28.2604 20.1173 29.7128 19.2004 29.4496 18.4035ZM2.96405 14.8456C2.03468 11.8009 1.49168 8.73925 1.44868 7.88075C1.31293 5.1665 1.97005 3.27713 3.40155 2.26488C5.69743 0.641627 9.4513 1.58888 11.0366 2.10238C11.0326 2.10638 11.0283 2.11 11.0243 2.11413C8.49455 4.66913 8.55455 9.03413 8.5608 9.301C8.56055 9.40388 8.56905 9.54963 8.58105 9.75013C8.62455 10.4843 8.70555 11.8506 8.48918 13.3981C8.28805 14.8361 8.7313 16.2436 9.70518 17.2596C9.80593 17.3648 9.91118 17.4635 10.0199 17.5564C9.58643 18.0206 8.64443 19.0471 7.6418 20.2534C6.93218 21.1065 6.44218 20.943 6.28105 20.8893C5.79118 20.7259 5.2648 20.1554 4.73343 19.2364C4.13393 18.1876 3.52905 16.6968 2.96405 14.8456ZM10.4731 21.2045C10.2592 21.151 10.0642 21.063 9.9328 20.983C10.0439 20.9338 10.2296 20.8703 10.5369 20.8069C12.1411 20.4768 12.3888 20.2436 12.9298 19.5566C13.0538 19.3991 13.1943 19.2208 13.3889 19.0034C13.4308 18.9564 13.4622 18.9011 13.4811 18.8411C13.6946 18.652 13.8216 18.7038 14.0272 18.789C14.2222 18.8698 14.4119 19.114 14.4891 19.383C14.5254 19.51 14.5664 19.7511 14.4326 19.9385C13.3022 21.5208 11.6556 21.5003 10.4731 21.2045ZM13.0906 16.2195L13.0249 16.3958C12.8587 16.8415 12.7041 17.2559 12.6082 17.6495C11.7739 17.6469 10.9622 17.2905 10.3451 16.6465C9.56018 15.8276 9.20368 14.6885 9.36693 13.521C9.59543 11.8861 9.51105 10.4625 9.46568 9.69775C9.45943 9.59063 9.4538 9.49688 9.45043 9.42288C9.82005 9.09525 11.5328 8.17763 12.7541 8.45738C13.3114 8.58513 13.6511 8.9645 13.7922 9.61738C14.5229 12.9971 13.8889 14.4058 13.3794 15.5378C13.2744 15.771 13.1753 15.9914 13.0906 16.2195ZM22.2952 21.9351C22.2741 22.1561 22.2504 22.4051 22.2179 22.68L22.0354 23.2279C22.0209 23.2713 22.0133 23.3167 22.0127 23.3625C22.0053 23.9559 21.9452 24.1736 21.8689 24.4491C21.7897 24.7356 21.6998 25.0605 21.6447 25.771C21.5072 27.5389 20.5469 28.5544 18.6232 28.9666C16.7288 29.373 16.3928 28.3456 16.0967 27.4395C16.0664 27.3445 16.0343 27.2501 16.0006 27.1563C15.7313 26.424 15.7617 25.3914 15.8038 23.9624C15.8244 23.2609 15.7727 21.5858 15.3911 20.6546C15.3966 20.2881 15.4043 19.916 15.4148 19.5399C15.4161 19.4922 15.4096 19.4447 15.3957 19.3991C15.3836 19.3113 15.3653 19.2244 15.3408 19.1391C15.1876 18.6038 14.8142 18.1559 14.3662 17.9703C14.1882 17.8965 13.8614 17.7613 13.4689 17.8616C13.5527 17.5166 13.6978 17.1273 13.8552 16.7055L13.9213 16.528C13.9957 16.328 14.0888 16.1209 14.1876 15.9015C14.7207 14.717 15.4508 13.0949 14.6583 9.43C14.3616 8.05738 13.3703 7.38713 11.8678 7.54275C10.9669 7.636 10.1429 7.9995 9.7318 8.20788C9.64938 8.24965 9.56778 8.29304 9.48705 8.338C9.6018 6.955 10.0353 4.37038 11.6567 2.73513C11.7771 2.61377 11.9037 2.49862 12.0358 2.39013C12.1014 2.37733 12.1633 2.34981 12.2167 2.30963C13.1572 1.59638 14.3348 1.24638 15.7192 1.269C16.2306 1.27738 16.7213 1.31138 17.1869 1.37025C19.6107 1.81325 21.2418 3.17875 22.2318 4.34863C23.2497 5.5515 23.8008 6.763 24.0208 7.4165C22.3668 7.24825 21.2416 7.575 20.6712 8.39025C19.4304 10.1639 21.3499 13.6064 22.2726 15.2608C22.4417 15.564 22.5878 15.826 22.6337 15.9374C22.9341 16.6655 23.3231 17.1515 23.6071 17.5064C23.6941 17.6151 23.7786 17.7206 23.8427 17.8126C23.3417 17.957 22.4417 18.2908 22.5237 19.9589C22.5083 20.1543 22.4708 20.5175 22.4194 20.9774C22.3618 21.237 22.3317 21.5528 22.2952 21.9351ZM23.4083 19.9088C23.3577 18.8693 23.7447 18.7606 24.1542 18.6456C24.2108 18.6301 24.2671 18.6132 24.3229 18.5949C24.3758 18.6417 24.4318 18.6847 24.4907 18.7236C25.2036 19.1943 26.4686 19.2503 28.2492 18.8916C27.9972 19.1128 27.6006 19.3909 27.0576 19.643C26.5453 19.8809 25.6879 20.0593 24.8734 20.0975C23.9738 20.1395 23.5161 19.9966 23.4083 19.9088ZM24.1202 8.31975C24.1128 8.75825 24.0524 9.15625 23.9884 9.57188C23.9197 10.0189 23.8484 10.4811 23.8304 11.0421C23.8127 11.5881 23.8809 12.1558 23.9469 12.7048C24.0802 13.8135 24.2169 14.9551 23.6876 16.0815C23.5997 15.9257 23.5214 15.7648 23.4531 15.5995C23.3872 15.44 23.2444 15.1838 23.0467 14.8293C22.2772 13.4491 20.4749 10.2173 21.3976 8.8985C21.8719 8.22013 23.0736 8.19088 24.1202 8.31975ZM24.4057 17.0869C24.3704 17.0419 24.3348 16.9972 24.2991 16.9526L24.2547 16.8971C25.1624 15.3978 24.9849 13.9144 24.8269 12.599C24.7621 12.0593 24.7008 11.5495 24.7163 11.0708C24.7324 10.5631 24.7996 10.1279 24.8644 9.70688C24.9443 9.18813 25.0254 8.6515 25.0031 8.01875C25.0198 7.95238 25.0266 7.874 25.0178 7.781C24.9607 7.17413 24.2679 5.3585 22.8561 3.71475C22.0966 2.83063 20.9941 1.84325 19.4949 1.16538C20.1513 1.03213 21.0359 0.911002 22.0254 0.933002C24.5898 0.990002 26.6187 1.94988 28.0557 3.786C28.0862 3.82586 28.1141 3.8677 28.1391 3.91125C29.0429 5.60575 27.7938 11.7551 24.4057 17.0869ZM13.3849 9.44163C13.3537 9.66588 12.9988 9.96975 12.6086 9.96975C12.5747 9.96977 12.5409 9.96743 12.5074 9.96275C12.2733 9.93025 12.0368 9.78275 11.8751 9.56825C11.8178 9.49263 11.7247 9.34575 11.7432 9.21275C11.7501 9.16263 11.7758 9.08963 11.8588 9.02675C12.0066 8.915 12.2986 8.8735 12.6208 8.91838C13.0162 8.9735 13.4241 9.16063 13.3849 9.44163ZM23.2981 8.92738C23.3119 9.02638 23.2368 9.17863 23.1067 9.31513C23.0213 9.40475 22.8417 9.56025 22.5968 9.59413C22.5657 9.59845 22.5344 9.60062 22.5031 9.60063C22.1362 9.60063 21.8263 9.30763 21.8022 9.136C21.7722 8.91538 22.1323 8.74775 22.5036 8.696C22.8748 8.64425 23.2674 8.707 23.2981 8.92738Z" fill="black"/>
</g>
<defs>
<clipPath id="clip0_1616_152">
<rect width="30" height="30" fill="white"/>
</clipPath>
</defs>
</svg>
